<svg width="159" height="140" viewBox="0 0 159 140" fill="none" xmlns="http://www.w3.org/2000/svg">
<path d="M38.3543 68.4058C38.0626 68.4641 37.7593 68.5224 37.4326 68.5808C37.1176 68.6391 36.8026 68.6974 36.511 68.7558C32.0309 69.8058 27.5976 70.8791 23.2343 71.9875C18.8709 73.0958 14.4959 74.3208 10.1325 75.6508C9.95754 75.7091 9.66587 75.7325 9.25754 75.7325H8.90754C8.55754 75.6158 8.33587 75.4408 8.2542 75.2075C8.17254 74.9741 8.20754 74.7175 8.38254 74.4258C8.67421 74.0758 9.19921 73.7608 9.95754 73.4691C15.1959 72.1275 20.2009 70.9258 24.9843 69.8408C29.7559 68.7674 34.5043 67.7058 39.2176 66.6558C39.801 66.5391 40.2326 66.3058 40.5243 65.9558C43.091 62.7008 45.8327 59.5741 48.7727 56.6107C51.7127 53.6357 54.7577 50.6957 57.896 47.7907C59.1794 46.624 60.4044 45.4924 61.5594 44.384C62.726 43.2757 63.951 42.2257 65.2227 41.234C65.2227 41.1757 65.2111 41.1524 65.176 41.1524C65.141 41.1524 65.1294 41.129 65.1294 41.0707C64.9544 41.129 64.7794 41.1524 64.6044 41.1524C64.4294 41.1524 64.2894 41.1874 64.1727 41.234C59.226 42.109 54.3027 43.054 49.4143 44.069C44.526 45.084 39.6843 46.2624 34.9126 47.604C34.096 47.8374 33.326 48.059 32.6026 48.2574C31.8793 48.4674 31.0976 48.6774 30.2926 48.9107C30.0009 48.969 29.7559 49.0157 29.5459 49.039C29.3359 49.074 29.0909 49.0857 28.7993 49.0857C28.2743 49.0857 27.9009 48.8524 27.6676 48.3857C27.4926 47.919 27.6326 47.5457 28.0993 47.254C28.3909 47.1374 28.7643 47.0207 29.2309 46.904C36.8026 44.6874 44.3277 42.8907 51.806 41.4907C59.2844 40.0907 66.7861 38.8657 74.2994 37.8273C78.4878 37.1857 82.7111 36.7073 86.9695 36.3807C91.2161 36.0657 95.4745 35.9023 99.7212 35.9023C100.888 35.9023 101.996 35.9373 103.035 35.984C104.085 36.0423 105.158 36.159 106.266 36.334C106.558 36.4507 106.838 36.544 107.095 36.5907C107.351 36.649 107.608 36.7423 107.841 36.8473C109.183 37.4307 109.381 38.189 108.448 39.1224C108.04 39.4724 107.515 39.8224 106.873 40.1724C106.64 40.289 106.395 40.4057 106.126 40.5224C105.87 40.639 105.59 40.7557 105.298 40.8724C105.181 40.8724 105.088 40.884 105.041 40.919C104.983 40.954 104.89 40.9657 104.785 40.9657C104.96 40.7324 105.135 40.5457 105.31 40.394C105.485 40.254 105.683 40.0907 105.916 39.9157C106.208 39.6824 106.465 39.484 106.698 39.309C106.931 39.134 107.165 38.9007 107.398 38.609C107.865 38.259 107.771 37.9673 107.141 37.734C106.791 37.6173 106.43 37.5357 106.045 37.4773C105.66 37.419 105.298 37.3957 104.948 37.3957C104.365 37.3957 103.781 37.384 103.198 37.349C102.614 37.3257 102.031 37.3023 101.448 37.3023C95.8011 37.3023 90.2711 37.6523 84.8578 38.3523C79.4444 39.0524 73.9961 39.7174 68.5244 40.359C68.5827 40.8257 68.4894 41.1757 68.2677 41.409C68.0344 41.6424 67.7777 41.899 67.4861 42.1907C63.4727 45.8074 59.5527 49.4357 55.7377 53.1107C51.9227 56.7741 48.3527 60.6474 45.0393 64.7308C44.9226 64.8474 44.7477 65.0808 44.5143 65.4308C44.5143 65.4891 44.4793 65.5474 44.4327 65.6058C47.1743 65.3724 49.846 65.0574 52.471 64.6491C55.096 64.2408 57.686 64.0424 60.241 64.0424C61.641 64.0424 62.9827 64.1241 64.2544 64.2991C64.721 64.4158 65.071 64.5324 65.3044 64.6491C65.8294 64.9408 65.9461 65.2908 65.6544 65.6991C65.4794 66.1074 65.1644 66.3058 64.6977 66.3058C64.6394 66.3058 64.581 66.2941 64.5227 66.2591C64.4644 66.2358 64.406 66.2124 64.3477 66.2124C63.0644 65.8624 61.466 65.6874 59.541 65.6874C58.141 65.6874 56.6827 65.7574 55.1777 65.9091C53.661 66.0608 52.1793 66.2241 50.721 66.4341C49.2627 66.6441 47.886 66.8424 46.5677 67.0408C45.261 67.2508 44.106 67.4374 43.1143 67.6124C42.8226 67.6708 42.566 67.8691 42.3326 68.2191C40.466 70.4358 38.751 72.8041 37.176 75.3358C35.601 77.8675 34.236 80.4458 33.0693 83.0708C32.6609 84.2375 32.2526 85.5208 31.8443 86.9092C31.4359 88.3092 31.1559 89.7092 31.0159 91.0975C30.8643 92.4975 30.8643 93.8625 31.0159 95.2042C31.1559 96.5459 31.5526 97.7359 32.1943 98.7859C32.6609 99.3692 33.2676 99.6609 34.026 99.6609C34.1426 99.6609 34.2476 99.6492 34.3293 99.6142C34.411 99.5792 34.516 99.5675 34.6326 99.5675C38.471 98.3425 42.146 96.7442 45.6343 94.7609C49.1227 92.7775 52.4477 90.5725 55.586 88.1225C58.736 85.6725 61.746 83.0708 64.6277 80.3058C67.5094 77.5408 70.2627 74.7641 72.8761 71.9641C72.9927 71.8475 73.0627 71.7658 73.0977 71.7075C73.1211 71.6491 73.2027 71.5908 73.3194 71.5325C73.4361 71.4741 73.6344 71.4508 73.9261 71.4508H74.1011C74.3927 71.5675 74.5327 71.7425 74.5327 71.9758C74.5327 72.2091 74.3811 72.4658 74.1011 72.7575C72.4094 74.7991 70.4844 76.8758 68.3377 78.9991C66.1794 81.1225 63.916 83.1875 61.5244 85.2058C59.1327 87.2125 56.7177 89.1258 54.2794 90.9225C51.8293 92.7309 49.4493 94.3409 47.116 95.7759C44.7827 97.1992 42.601 98.3775 40.571 99.3109C38.5293 100.244 36.756 100.851 35.2393 101.143H34.3643C31.9726 101.143 30.2459 100.536 29.1726 99.3109C28.0993 98.0859 27.5159 96.4992 27.4226 94.5509C27.3409 92.6025 27.6443 90.4325 28.3443 88.0408C29.0443 85.6492 29.9193 83.2808 30.9693 80.9242C32.0193 78.5675 33.1626 76.3508 34.4226 74.2858C35.671 72.2208 36.826 70.5758 37.876 69.3508C38.1093 69.0008 38.2843 68.7674 38.401 68.6508C38.401 68.5341 38.366 68.4524 38.3193 68.3941L38.3543 68.4058Z" fill="white"/>
<path d="M158.405 95.1338C158.043 95.6821 157.623 95.9971 157.203 96.2888C157.145 96.3238 157.098 96.3588 157.051 96.3821C157.051 96.3821 157.04 96.3938 157.028 96.3938C155.791 96.9071 154.438 96.9771 154.438 96.9771C156.538 95.5771 157.168 94.2355 157.133 94.0955C157.075 93.7105 156.55 93.3138 156.34 93.1271C156.071 92.8938 155.78 92.6605 155.476 92.4621C154.858 92.0421 154.181 91.6921 153.47 91.3888C152.035 90.7705 150.483 90.3388 148.896 89.8955C147.31 89.4521 145.734 89.0555 144.136 88.7055C137.754 87.3404 119.169 85.8354 112.601 85.5904C110.956 85.5321 109.323 85.4971 107.678 85.4854C106.033 85.4621 104.388 85.4854 102.743 85.5438L92.8727 85.8354L83.0143 86.5004C79.7476 86.8154 76.4576 87.1654 73.2026 87.4104H73.0743C72.4093 87.4688 71.8376 86.9788 71.7793 86.3138C71.7443 85.8471 71.9893 85.4038 72.3859 85.1938C74.3809 84.0504 76.3993 82.8604 78.3243 81.5654C80.2493 80.2588 82.0693 78.8004 83.8543 77.3304C87.4127 74.3671 90.8077 71.1471 93.561 67.5187C94.9027 65.7104 96.1043 63.7504 96.5827 61.767C96.8043 60.7754 96.8043 59.8304 96.501 59.037C96.1977 58.232 95.5793 57.5554 94.7743 56.9954C93.9577 56.4353 92.9893 55.992 92.056 55.7703C91.111 55.5487 90.1427 55.537 89.1976 55.747C87.2726 56.1787 85.4876 57.4504 83.9243 58.9787C82.361 60.5304 80.996 62.3387 79.7593 64.2404C78.511 66.142 77.3676 68.1487 76.3176 70.1904C74.2176 74.2971 72.4093 78.5671 70.7526 82.9071C69.1076 87.2588 67.6259 91.6688 66.3076 96.1371C65.6426 98.3655 65.0126 100.617 64.4059 102.857L63.5309 106.241C63.2509 107.361 63.0176 108.516 63.0642 109.706C63.0876 110.464 62.5042 111.094 61.7459 111.117C60.9876 111.141 60.3576 110.557 60.3342 109.799C60.3342 109.566 60.3809 109.321 60.4742 109.122C61.0342 108.026 61.3492 106.906 61.6409 105.762L62.5042 102.344C63.0876 100.069 63.7176 97.8055 64.3592 95.5538C65.6776 91.0505 67.0776 86.5588 68.6526 82.1254C70.2393 77.6921 71.9893 73.3054 74.0776 69.0471C76.1893 64.812 78.5576 60.6004 82.0576 57.0654C82.9326 56.1903 83.901 55.3737 84.986 54.6737C86.071 53.9737 87.2843 53.402 88.6143 53.0987C89.9327 52.7953 91.3677 52.7837 92.686 53.1337C94.0277 53.472 95.206 54.0437 96.3027 54.8137C97.3993 55.607 98.4144 56.7387 98.8927 58.162C99.126 58.862 99.231 59.597 99.231 60.3087C99.2077 61.0204 99.091 61.697 98.916 62.3387C98.1577 64.9054 96.711 66.912 95.1943 68.7904C93.6543 70.6454 91.9743 72.3254 90.2127 73.9237C88.4627 75.5104 86.666 77.0387 84.8343 78.5088C83.0026 80.0021 81.1126 81.3904 79.2576 82.8488C78.616 83.3621 77.9743 83.8638 77.3326 84.3771C77.4959 84.3654 77.6476 84.3421 77.811 84.3304L82.7693 83.8521L92.721 83.1871C99.371 83.0471 106.021 82.7671 112.683 83.1288C119.333 83.4554 138.023 85.0888 144.579 86.5588C146.213 86.9204 147.846 87.3521 149.445 87.8071C151.043 88.2621 152.676 88.7171 154.286 89.4171C155.091 89.7671 155.885 90.1871 156.643 90.7005C157.016 90.9571 157.378 91.2488 157.728 91.5638C158.125 91.9371 158.521 92.4038 158.696 93.0805C158.906 93.7571 158.731 94.5855 158.37 95.1105L158.405 95.1338Z" fill="white"/>
<path d="M77.239 0.376705C38.8439 -3.60164 4.3688 24.3868 0.378792 62.7702C-3.61122 101.154 24.3772 135.629 62.7723 139.619C91.8457 142.64 118.679 127.31 131.723 103.02C131.746 102.974 131.781 102.927 131.793 102.88C133.461 99.7537 134.908 96.487 136.086 93.092C135.573 92.9637 135.036 92.847 134.488 92.7187C124.221 121.85 94.9724 141.322 62.9357 137.997C25.4505 134.1 -1.88455 100.43 2.01213 62.9452C5.90881 25.4484 39.5789 -1.88664 77.0757 2.01004C114.572 5.90672 141.908 39.5768 138.011 77.0736C137.906 78.0536 137.789 79.0103 137.649 79.9786C138.198 80.107 138.723 80.2353 139.236 80.3636C139.388 79.3253 139.528 78.2869 139.633 77.2369C143.623 38.8418 115.622 4.36672 77.239 0.376705Z" fill="white"/>
</svg>
