<svg width="158" height="125" viewBox="0 0 158 125" fill="none" xmlns="http://www.w3.org/2000/svg">
<path d="M40.8818 62.4957L53.1625 62.4957C58.6854 62.4957 63.1625 66.9728 63.1625 72.4957L63.1625 114C63.1625 119.523 58.6854 124 53.1625 124L11 124C5.47713 124 0.999979 119.523 0.99998 114L0.999988 70.6635C0.999988 69.1447 1.34598 67.6457 2.01171 66.2805L31.1058 6.61699C32.7817 3.18028 36.2705 1.00001 40.0941 1.00001L48.9119 1.00001C55.8466 1.00001 60.6761 7.88651 58.3139 14.4065L40.8934 62.4875C40.8916 62.4924 40.887 62.4957 40.8818 62.4957V62.4957ZM134.711 62.4957L146.991 62.4957C152.514 62.4957 156.991 66.9728 156.991 72.4957L156.991 114C156.991 119.523 152.514 124 146.991 124L104.829 124C99.3059 124 94.8288 119.523 94.8288 114L94.8288 70.6636C94.8288 69.1447 95.1748 67.6458 95.8405 66.2805L124.935 6.61701C126.61 3.18029 130.099 1.00002 133.923 1.00002L142.741 1.00002C149.675 1.00003 154.505 7.88653 152.143 14.4065L134.722 62.4875C134.72 62.4924 134.716 62.4957 134.711 62.4957V62.4957Z" stroke="#E29A4B" stroke-width="2" stroke-miterlimit="10" stroke-linejoin="round"/>
</svg>
