<svg width="158" height="126" viewBox="0 0 158 126" fill="none" xmlns="http://www.w3.org/2000/svg">
<path d="M117.118 62.582L104.837 62.582C99.3146 62.582 94.8374 58.1049 94.8374 52.582L94.8374 11.0001C94.8374 5.47727 99.3146 1.00012 104.837 1.00012L147 1.00012C152.523 1.00012 157 5.47727 157 11.0001L157 54.4094C157 55.9266 156.655 57.4239 155.99 58.7879L126.893 118.534C125.218 121.973 121.728 124.155 117.902 124.155L109.082 124.155C102.149 124.155 97.3196 117.272 99.6786 110.753L117.107 62.5902C117.108 62.5853 117.113 62.582 117.118 62.582V62.582ZM23.2894 62.582L11.0087 62.582C5.48581 62.582 1.00865 58.1049 1.00865 52.582L1.00865 11.0001C1.00865 5.47728 5.4858 1.00013 11.0086 1.00013L53.1712 1.00012C58.6941 1.00012 63.1712 5.47728 63.1712 11.0001L63.1712 54.4094C63.1712 55.9266 62.826 57.4239 62.1617 58.7879L33.0641 118.534C31.3892 121.973 27.899 124.155 24.0737 124.155L15.2532 124.155C8.32016 124.155 3.49079 117.272 5.84985 110.753L23.2778 62.5902C23.2796 62.5853 23.2842 62.582 23.2894 62.582V62.582Z" stroke="#E29A4B" stroke-width="2" stroke-miterlimit="10" stroke-linejoin="round"/>
</svg>
